<svg width="326" height="102" viewBox="0 0 326 102" fill="none" xmlns="http://www.w3.org/2000/svg">
<rect width="326" height="102" rx="51" fill="white"/>
<path d="M124.366 37.8294C125.503 35.7445 128.497 35.7445 129.634 37.8294L131.926 42.0317C132.357 42.8229 133.121 43.3782 134.007 43.5441L138.712 44.4252C141.046 44.8623 141.971 47.7093 140.34 49.4349L137.051 52.9132C136.432 53.5681 136.14 54.4666 136.256 55.3603L136.872 60.1072C137.178 62.4621 134.756 64.2217 132.611 63.2034L128.286 61.1507C127.472 60.7642 126.528 60.7642 125.714 61.1507L121.389 63.2034C119.244 64.2217 116.822 62.4621 117.128 60.1072L117.744 55.3603C117.86 54.4666 117.568 53.5681 116.949 52.9132L113.66 49.4349C112.029 47.7093 112.954 44.8623 115.288 44.4252L119.993 43.5441C120.879 43.3782 121.643 42.8229 122.074 42.0317L124.366 37.8294Z" fill="#FFB648"/>
<path d="M162.366 37.8294C163.503 35.7445 166.497 35.7445 167.634 37.8294L169.926 42.0317C170.357 42.8229 171.121 43.3782 172.007 43.5441L176.712 44.4252C179.046 44.8623 179.971 47.7093 178.34 49.4349L175.051 52.9132C174.432 53.5681 174.14 54.4666 174.256 55.3603L174.872 60.1072C175.178 62.4621 172.756 64.2217 170.611 63.2034L166.286 61.1507C165.472 60.7642 164.528 60.7642 163.714 61.1507L159.389 63.2034C157.244 64.2217 154.822 62.4621 155.128 60.1072L155.744 55.3603C155.86 54.4666 155.568 53.5681 154.949 52.9132L151.66 49.4349C150.029 47.7093 150.954 44.8623 153.288 44.4252L157.993 43.5441C158.879 43.3782 159.643 42.8229 160.074 42.0317L162.366 37.8294Z" fill="#FFB648"/>
<path d="M199.366 37.8294C200.503 35.7445 203.497 35.7445 204.634 37.8294L206.926 42.0317C207.357 42.8229 208.121 43.3782 209.007 43.5441L213.712 44.4252C216.046 44.8623 216.971 47.7093 215.34 49.4349L212.051 52.9132C211.432 53.5681 211.14 54.4666 211.256 55.3603L211.872 60.1072C212.178 62.4621 209.756 64.2217 207.611 63.2034L203.286 61.1507C202.472 60.7642 201.528 60.7642 200.714 61.1507L196.389 63.2034C194.244 64.2217 191.822 62.4621 192.128 60.1072L192.744 55.3603C192.86 54.4666 192.568 53.5681 191.949 52.9132L188.66 49.4349C187.029 47.7093 187.954 44.8623 190.288 44.4252L194.993 43.5441C195.879 43.3782 196.643 42.8229 197.074 42.0317L199.366 37.8294Z" fill="#FFB648"/>
<path d="M237.366 37.8294C238.503 35.7445 241.497 35.7445 242.634 37.8294L244.926 42.0317C245.357 42.8229 246.121 43.3782 247.007 43.5441L251.712 44.4252C254.046 44.8623 254.971 47.7093 253.34 49.4349L250.051 52.9132C249.432 53.5681 249.14 54.4666 249.256 55.3603L249.872 60.1072C250.178 62.4621 247.756 64.2217 245.611 63.2034L241.286 61.1507C240.472 60.7642 239.528 60.7642 238.714 61.1507L234.389 63.2034C232.244 64.2217 229.822 62.4621 230.128 60.1072L230.744 55.3603C230.86 54.4666 230.568 53.5681 229.949 52.9132L226.66 49.4349C225.029 47.7093 225.954 44.8623 228.288 44.4252L232.993 43.5441C233.879 43.3782 234.643 42.8229 235.074 42.0317L237.366 37.8294Z" fill="#FFB648"/>
<path d="M273.366 37.8294C274.503 35.7445 277.497 35.7445 278.634 37.8294L280.926 42.0317C281.357 42.8229 282.121 43.3782 283.007 43.5441L287.712 44.4252C290.046 44.8623 290.971 47.7093 289.34 49.4349L286.051 52.9132C285.432 53.5681 285.14 54.4666 285.256 55.3603L285.872 60.1072C286.178 62.4621 283.756 64.2217 281.611 63.2034L277.286 61.1507C276.472 60.7642 275.528 60.7642 274.714 61.1507L270.389 63.2034C268.244 64.2217 265.822 62.4621 266.128 60.1072L266.744 55.3603C266.86 54.4666 266.568 53.5681 265.949 52.9132L262.66 49.4349C261.029 47.7093 261.954 44.8623 264.288 44.4252L268.993 43.5441C269.879 43.3782 270.643 42.8229 271.074 42.0317L273.366 37.8294Z" fill="#D7D1C7"/>
<mask id="mask0_482_1633" style="mask-type:alpha" maskUnits="userSpaceOnUse" x="261" y="36" width="30" height="28">
<path d="M273.366 37.8294C274.503 35.7445 277.497 35.7445 278.634 37.8294L280.926 42.0317C281.357 42.8229 282.121 43.3782 283.007 43.5441L287.712 44.4252C290.046 44.8623 290.971 47.7093 289.34 49.4349L286.051 52.9132C285.432 53.5681 285.14 54.4666 285.256 55.3603L285.872 60.1072C286.178 62.4621 283.756 64.2217 281.611 63.2034L277.286 61.1507C276.472 60.7642 275.528 60.7642 274.714 61.1507L270.389 63.2034C268.244 64.2217 265.822 62.4621 266.128 60.1072L266.744 55.3603C266.86 54.4666 266.568 53.5681 265.949 52.9132L262.66 49.4349C261.029 47.7093 261.954 44.8623 264.288 44.4252L268.993 43.5441C269.879 43.3782 270.643 42.8229 271.074 42.0317L273.366 37.8294Z" fill="#D7D1C7"/>
</mask>
<g mask="url(#mask0_482_1633)">
<rect x="275" y="71" width="16" height="43" transform="rotate(-180 275 71)" fill="#FFB648"/>
</g>
<path opacity="0.7" d="M40.12 72H41.544V67.744H44.912L46.976 72H48.608L46.384 67.432C47.0347 67.16 47.528 66.7307 47.864 66.144C48.2 65.552 48.368 64.8747 48.368 64.112C48.368 63.1947 48.1253 62.408 47.64 61.752C47.16 61.0907 46.4533 60.688 45.52 60.544C45.3707 60.5173 45.2187 60.5013 45.064 60.496C44.9147 60.4853 44.784 60.48 44.672 60.48H40.12V72ZM41.544 66.392V61.832H44.624C44.7253 61.832 44.84 61.8373 44.968 61.848C45.1013 61.8587 45.2267 61.8773 45.344 61.904C45.8987 62.0267 46.2987 62.3067 46.544 62.744C46.7893 63.176 46.912 63.632 46.912 64.112C46.912 64.592 46.7893 65.0507 46.544 65.488C46.2987 65.92 45.8987 66.1973 45.344 66.32C45.2267 66.3467 45.1013 66.3653 44.968 66.376C44.84 66.3867 44.7253 66.392 44.624 66.392H41.544ZM52.826 72.24C54.266 72.24 55.3327 71.712 56.026 70.656V72H57.29V66.656C57.29 66.3147 57.274 65.9893 57.242 65.68C57.21 65.3653 57.1327 65.0747 57.01 64.808C56.7647 64.2427 56.3593 63.8213 55.794 63.544C55.2287 63.2613 54.5567 63.12 53.778 63.12C52.802 63.12 52.0127 63.336 51.41 63.768C50.8127 64.2 50.4127 64.7947 50.21 65.552L51.562 65.96C51.7167 65.432 51.9913 65.048 52.386 64.808C52.7807 64.568 53.2393 64.448 53.762 64.448C54.5087 64.448 55.0447 64.616 55.37 64.952C55.7007 65.2827 55.874 65.792 55.89 66.48C55.25 66.5707 54.578 66.6667 53.874 66.768C53.1753 66.864 52.554 66.984 52.01 67.128C51.354 67.32 50.8367 67.6213 50.458 68.032C50.0793 68.4373 49.89 68.9813 49.89 69.664C49.89 70.128 49.9993 70.5547 50.218 70.944C50.442 71.3333 50.77 71.648 51.202 71.888C51.6393 72.1227 52.1807 72.24 52.826 72.24ZM53.042 71.048C52.4287 71.048 51.986 70.9067 51.714 70.624C51.442 70.336 51.306 70.0133 51.306 69.656C51.306 69.2507 51.4393 68.9413 51.706 68.728C51.978 68.5093 52.2927 68.344 52.65 68.232C53.0713 68.1147 53.562 68.016 54.122 67.936C54.682 67.856 55.266 67.776 55.874 67.696C55.874 67.8933 55.8633 68.1173 55.842 68.368C55.826 68.6187 55.7887 68.848 55.73 69.056C55.6287 69.5893 55.346 70.056 54.882 70.456C54.4233 70.8507 53.81 71.048 53.042 71.048ZM64.194 72V70.776C63.602 70.8667 63.0953 70.8827 62.674 70.824C62.258 70.7653 61.954 70.5653 61.762 70.224C61.6607 70.0427 61.6047 69.8293 61.594 69.584C61.5887 69.3333 61.586 69.0293 61.586 68.672V64.536H64.194V63.36H61.586V60.96H60.162V63.36H58.41V64.536H60.162V68.736C60.162 69.184 60.1673 69.584 60.178 69.936C60.194 70.2827 60.2873 70.624 60.458 70.96C60.6607 71.3493 60.9567 71.6373 61.346 71.824C61.7353 72.0053 62.178 72.104 62.674 72.12C63.1753 72.1413 63.682 72.1013 64.194 72ZM66.1081 61.832H67.5321V60.36H66.1081V61.832ZM66.1081 72H67.5321V63.36H66.1081V72ZM69.9245 72H71.3645V67.448C71.3645 66.4453 71.5805 65.7013 72.0125 65.216C72.4498 64.7307 73.0258 64.488 73.7405 64.488C74.3485 64.488 74.8232 64.64 75.1645 64.944C75.5058 65.248 75.7432 65.6427 75.8765 66.128C76.0152 66.6133 76.0845 67.128 76.0845 67.672V72H77.5245V67.224C77.5245 66.8133 77.4738 66.3733 77.3725 65.904C77.2765 65.4293 77.1005 64.984 76.8445 64.568C76.5938 64.1467 76.2445 63.8027 75.7965 63.536C75.3538 63.2693 74.7832 63.136 74.0845 63.136C72.8258 63.136 71.8658 63.5813 71.2045 64.472V63.36H69.9245V72ZM82.9964 72.24C83.5297 72.24 84.007 72.1493 84.4284 71.968C84.855 71.7867 85.223 71.5333 85.5324 71.208V72.04C85.5484 73.816 84.7404 74.704 83.1084 74.704C82.687 74.704 82.2817 74.608 81.8924 74.416C81.503 74.224 81.2017 73.9173 80.9884 73.496L79.6844 74.184C80.047 74.8293 80.5377 75.3067 81.1564 75.616C81.775 75.9253 82.423 76.08 83.1004 76.08C84.135 76.08 84.9777 75.8587 85.6284 75.416C86.2844 74.9787 86.695 74.3013 86.8604 73.384C86.903 73.1707 86.9297 72.9547 86.9404 72.736C86.9564 72.5227 86.9644 72.296 86.9644 72.056V63.36H85.7004V64.328C85.3857 63.9493 85.0017 63.6533 84.5484 63.44C84.095 63.2267 83.575 63.12 82.9884 63.12C82.1884 63.12 81.5004 63.32 80.9244 63.72C80.3484 64.1147 79.903 64.656 79.5884 65.344C79.279 66.032 79.1244 66.808 79.1244 67.672C79.1244 68.536 79.279 69.312 79.5884 70C79.8977 70.688 80.3404 71.2347 80.9164 71.64C81.4977 72.04 82.191 72.24 82.9964 72.24ZM83.1724 70.936C82.607 70.936 82.135 70.792 81.7564 70.504C81.383 70.216 81.103 69.8267 80.9164 69.336C80.7297 68.84 80.6364 68.2853 80.6364 67.672C80.6364 67.064 80.727 66.5147 80.9084 66.024C81.095 65.5333 81.3777 65.144 81.7564 64.856C82.1404 64.568 82.6257 64.424 83.2124 64.424C84.055 64.424 84.679 64.728 85.0844 65.336C85.495 65.9387 85.7004 66.7173 85.7004 67.672C85.7004 68.6213 85.4977 69.4027 85.0924 70.016C84.687 70.6293 84.047 70.936 83.1724 70.936Z" fill="black"/>
<path d="M47 51H49.544V47.988H51.26V45.612H49.544V40.932H47V45.612H42.068L47.684 33.72H44.816L39.2 45.612V47.988H47V51ZM53.3842 51H56.0362V48.348H53.3842V51ZM64.2234 51.36C65.3034 51.36 66.2954 51.1 67.1994 50.58C68.1114 50.06 68.8434 49.364 69.3954 48.492C69.9474 47.612 70.2234 46.636 70.2234 45.564C70.2234 44.484 69.9794 43.516 69.4914 42.66C69.0114 41.804 68.3474 41.132 67.4994 40.644C66.6594 40.148 65.6994 39.9 64.6194 39.9C64.1074 39.9 63.5914 39.98 63.0714 40.14C62.5594 40.3 62.0914 40.532 61.6674 40.836L61.9554 36.084H69.0354V33.72H59.7114L59.1834 42.804L61.3674 43.572C61.6394 43.212 62.0194 42.892 62.5074 42.612C62.9954 42.324 63.5914 42.18 64.2954 42.18C64.9114 42.18 65.4754 42.332 65.9874 42.636C66.5074 42.932 66.9194 43.336 67.2234 43.848C67.5354 44.36 67.6914 44.932 67.6914 45.564C67.6914 46.18 67.5394 46.744 67.2354 47.256C66.9314 47.768 66.5234 48.176 66.0114 48.48C65.4994 48.784 64.9274 48.936 64.2954 48.936C63.5754 48.936 62.8994 48.712 62.2674 48.264C61.6434 47.808 61.2314 47.196 61.0314 46.428L58.6194 47.076C58.8594 47.916 59.2514 48.66 59.7954 49.308C60.3394 49.948 60.9914 50.452 61.7514 50.82C62.5114 51.18 63.3354 51.36 64.2234 51.36ZM76.7396 33.72H79.2716L74.6636 51H72.1316L76.7396 33.72ZM86.8068 51.36C87.8868 51.36 88.8788 51.1 89.7828 50.58C90.6948 50.06 91.4268 49.364 91.9788 48.492C92.5308 47.612 92.8068 46.636 92.8068 45.564C92.8068 44.484 92.5628 43.516 92.0748 42.66C91.5948 41.804 90.9308 41.132 90.0828 40.644C89.2428 40.148 88.2828 39.9 87.2028 39.9C86.6908 39.9 86.1748 39.98 85.6548 40.14C85.1428 40.3 84.6748 40.532 84.2508 40.836L84.5388 36.084H91.6188V33.72H82.2948L81.7668 42.804L83.9508 43.572C84.2228 43.212 84.6028 42.892 85.0908 42.612C85.5788 42.324 86.1748 42.18 86.8788 42.18C87.4948 42.18 88.0588 42.332 88.5708 42.636C89.0908 42.932 89.5028 43.336 89.8068 43.848C90.1188 44.36 90.2748 44.932 90.2748 45.564C90.2748 46.18 90.1228 46.744 89.8188 47.256C89.5148 47.768 89.1068 48.176 88.5948 48.48C88.0828 48.784 87.5108 48.936 86.8788 48.936C86.1588 48.936 85.4828 48.712 84.8508 48.264C84.2268 47.808 83.8148 47.196 83.6148 46.428L81.2028 47.076C81.4428 47.916 81.8348 48.66 82.3788 49.308C82.9228 49.948 83.5748 50.452 84.3348 50.82C85.0948 51.18 85.9188 51.36 86.8068 51.36Z" fill="black"/>
</svg>
