<svg width="326" height="102" xmlns="http://www.w3.org/2000/svg">

 <mask height="28" width="30" y="36" x="261" maskUnits="userSpaceOnUse" id="mask0_482_1633">
  <path id="svg_1" fill="#D7D1C7" d="m273.366,37.8294c1.137,-2.0849 4.131,-2.0849 5.268,0l2.292,4.2023c0.431,0.7912 1.195,1.3465 2.081,1.5124l4.705,0.8811c2.334,0.4371 3.259,3.2841 1.628,5.0097l-3.289,3.4783c-0.619,0.6549 -0.911,1.5534 -0.795,2.4471l0.616,4.7469c0.306,2.3549 -2.116,4.1145 -4.261,3.0962l-4.325,-2.0527c-0.814,-0.3865 -1.758,-0.3865 -2.572,0l-4.325,2.0527c-2.145,1.0183 -4.567,-0.7413 -4.261,-3.0962l0.616,-4.7469c0.116,-0.8937 -0.176,-1.7922 -0.795,-2.4471l-3.289,-3.4783c-1.631,-1.7256 -0.706,-4.5726 1.628,-5.0097l4.705,-0.8811c0.886,-0.1659 1.65,-0.7212 2.081,-1.5124l2.292,-4.2023z"/>
 </mask>
 <g>
  <title>background</title>
  <rect fill="none" id="canvas_background" height="402" width="582" y="-1" x="-1"/>
 </g>
 <g>
  <title>Layer 1</title>
  <rect id="svg_2" fill="white" rx="51" height="102" width="326"/>
  <path id="svg_3" fill="#FFB648" d="m124.366,37.8294c1.137,-2.0849 4.131,-2.0849 5.268,0l2.292,4.2023c0.431,0.7912 1.195,1.3465 2.081,1.5124l4.705,0.8811c2.334,0.4371 3.259,3.2841 1.628,5.0097l-3.289,3.4783c-0.619,0.6549 -0.911,1.5534 -0.795,2.4471l0.616,4.7469c0.306,2.3549 -2.116,4.1145 -4.261,3.0962l-4.325,-2.0527c-0.814,-0.3865 -1.758,-0.3865 -2.572,0l-4.325,2.0527c-2.145,1.0183 -4.567,-0.7413 -4.261,-3.0962l0.616,-4.7469c0.116,-0.8937 -0.176,-1.7922 -0.795,-2.4471l-3.289,-3.4783c-1.631,-1.7256 -0.706,-4.5726 1.628,-5.0097l4.705,-0.8811c0.886,-0.1659 1.65,-0.7212 2.081,-1.5124l2.292,-4.2023z"/>
  <path id="svg_4" fill="#FFB648" d="m162.366,37.8294c1.137,-2.0849 4.131,-2.0849 5.268,0l2.292,4.2023c0.431,0.7912 1.195,1.3465 2.081,1.5124l4.705,0.8811c2.334,0.4371 3.259,3.2841 1.628,5.0097l-3.289,3.4783c-0.619,0.6549 -0.911,1.5534 -0.795,2.4471l0.616,4.7469c0.306,2.3549 -2.116,4.1145 -4.261,3.0962l-4.325,-2.0527c-0.814,-0.3865 -1.758,-0.3865 -2.572,0l-4.325,2.0527c-2.145,1.0183 -4.567,-0.7413 -4.261,-3.0962l0.616,-4.7469c0.116,-0.8937 -0.176,-1.7922 -0.795,-2.4471l-3.289,-3.4783c-1.631,-1.7256 -0.706,-4.5726 1.628,-5.0097l4.705,-0.8811c0.886,-0.1659 1.65,-0.7212 2.081,-1.5124l2.292,-4.2023z"/>
  <path id="svg_5" fill="#FFB648" d="m199.366,37.8294c1.137,-2.0849 4.131,-2.0849 5.268,0l2.292,4.2023c0.431,0.7912 1.195,1.3465 2.081,1.5124l4.705,0.8811c2.334,0.4371 3.259,3.2841 1.628,5.0097l-3.289,3.4783c-0.619,0.6549 -0.911,1.5534 -0.795,2.4471l0.616,4.7469c0.306,2.3549 -2.116,4.1145 -4.261,3.0962l-4.325,-2.0527c-0.814,-0.3865 -1.758,-0.3865 -2.572,0l-4.325,2.0527c-2.145,1.0183 -4.567,-0.7413 -4.261,-3.0962l0.616,-4.7469c0.116,-0.8937 -0.176,-1.7922 -0.795,-2.4471l-3.289,-3.4783c-1.631,-1.7256 -0.706,-4.5726 1.628,-5.0097l4.705,-0.8811c0.886,-0.1659 1.65,-0.7212 2.081,-1.5124l2.292,-4.2023z"/>
  <path id="svg_6" fill="#FFB648" d="m237.366,37.8294c1.137,-2.0849 4.131,-2.0849 5.268,0l2.292,4.2023c0.431,0.7912 1.195,1.3465 2.081,1.5124l4.705,0.8811c2.334,0.4371 3.259,3.2841 1.628,5.0097l-3.289,3.4783c-0.619,0.6549 -0.911,1.5534 -0.795,2.4471l0.616,4.7469c0.306,2.3549 -2.116,4.1145 -4.261,3.0962l-4.325,-2.0527c-0.814,-0.3865 -1.758,-0.3865 -2.572,0l-4.325,2.0527c-2.145,1.0183 -4.567,-0.7413 -4.261,-3.0962l0.616,-4.7469c0.116,-0.8937 -0.176,-1.7922 -0.795,-2.4471l-3.289,-3.4783c-1.631,-1.7256 -0.706,-4.5726 1.628,-5.0097l4.705,-0.8811c0.886,-0.1659 1.65,-0.7212 2.081,-1.5124l2.292,-4.2023z"/>
  <path id="svg_7" fill="#D7D1C7" d="m273.366,37.8294c1.137,-2.0849 4.131,-2.0849 5.268,0l2.292,4.2023c0.431,0.7912 1.195,1.3465 2.081,1.5124l4.705,0.8811c2.334,0.4371 3.259,3.2841 1.628,5.0097l-3.289,3.4783c-0.619,0.6549 -0.911,1.5534 -0.795,2.4471l0.616,4.7469c0.306,2.3549 -2.116,4.1145 -4.261,3.0962l-4.325,-2.0527c-0.814,-0.3865 -1.758,-0.3865 -2.572,0l-4.325,2.0527c-2.145,1.0183 -4.567,-0.7413 -4.261,-3.0962l0.616,-4.7469c0.116,-0.8937 -0.176,-1.7922 -0.795,-2.4471l-3.289,-3.4783c-1.631,-1.7256 -0.706,-4.5726 1.628,-5.0097l4.705,-0.8811c0.886,-0.1659 1.65,-0.7212 2.081,-1.5124l2.292,-4.2023z"/>
  <g id="svg_8" mask="url(#mask0_482_1633)">
   <rect id="svg_9" fill="#FFB648" transform="rotate(-180 275,71) " height="43" width="16" y="71" x="275"/>
  </g>
  <path id="svg_10" fill="black" d="m40.12,72l1.424,0l0,-4.256l3.368,0l2.064,4.256l1.632,0l-2.224,-4.568c0.6507,-0.272 1.144,-0.7013 1.48,-1.288c0.336,-0.592 0.504,-1.2693 0.504,-2.032c0,-0.9173 -0.2427,-1.704 -0.728,-2.36c-0.48,-0.6613 -1.1867,-1.064 -2.12,-1.208c-0.1493,-0.0267 -0.3013,-0.0427 -0.456,-0.048c-0.1493,-0.0107 -0.28,-0.016 -0.392,-0.016l-4.552,0l0,11.52zm1.424,-5.608l0,-4.56l3.08,0c0.1013,0 0.216,0.0053 0.344,0.016c0.1333,0.0107 0.2587,0.0293 0.376,0.056c0.5547,0.1227 0.9547,0.4027 1.2,0.84c0.2453,0.432 0.368,0.888 0.368,1.368c0,0.48 -0.1227,0.9387 -0.368,1.376c-0.2453,0.432 -0.6453,0.7093 -1.2,0.832c-0.1173,0.0267 -0.2427,0.0453 -0.376,0.056c-0.128,0.0107 -0.2427,0.016 -0.344,0.016l-3.08,0zm11.282,5.848c1.44,0 2.5067,-0.528 3.2,-1.584l0,1.344l1.264,0l0,-5.344c0,-0.3413 -0.016,-0.6667 -0.048,-0.976c-0.032,-0.3147 -0.1093,-0.6053 -0.232,-0.872c-0.2453,-0.5653 -0.6507,-0.9867 -1.216,-1.264c-0.5653,-0.2827 -1.2373,-0.424 -2.016,-0.424c-0.976,0 -1.7653,0.216 -2.368,0.648c-0.5973,0.432 -0.9973,1.0267 -1.2,1.784l1.352,0.408c0.1547,-0.528 0.4293,-0.912 0.824,-1.152c0.3947,-0.24 0.8533,-0.36 1.376,-0.36c0.7467,0 1.2827,0.168 1.608,0.504c0.3307,0.3307 0.504,0.84 0.52,1.528c-0.64,0.0907 -1.312,0.1867 -2.016,0.288c-0.6987,0.096 -1.32,0.216 -1.864,0.36c-0.656,0.192 -1.1733,0.4933 -1.552,0.904c-0.3787,0.4053 -0.568,0.9493 -0.568,1.632c0,0.464 0.1093,0.8907 0.328,1.28c0.224,0.3893 0.552,0.704 0.984,0.944c0.4373,0.2347 0.9787,0.352 1.624,0.352zm0.216,-1.192c-0.6133,0 -1.056,-0.1413 -1.328,-0.424c-0.272,-0.288 -0.408,-0.6107 -0.408,-0.968c0,-0.4053 0.1333,-0.7147 0.4,-0.928c0.272,-0.2187 0.5867,-0.384 0.944,-0.496c0.4213,-0.1173 0.912,-0.216 1.472,-0.296c0.56,-0.08 1.144,-0.16 1.752,-0.24c0,0.1973 -0.0107,0.4213 -0.032,0.672c-0.016,0.2507 -0.0533,0.48 -0.112,0.688c-0.1013,0.5333 -0.384,1 -0.848,1.4c-0.4587,0.3947 -1.072,0.592 -1.84,0.592zm11.152,0.952l0,-1.224c-0.592,0.0907 -1.0987,0.1067 -1.52,0.048c-0.416,-0.0587 -0.72,-0.2587 -0.912,-0.6c-0.1013,-0.1813 -0.1573,-0.3947 -0.168,-0.64c-0.0053,-0.2507 -0.008,-0.5547 -0.008,-0.912l0,-4.136l2.608,0l0,-1.176l-2.608,0l0,-2.4l-1.424,0l0,2.4l-1.752,0l0,1.176l1.752,0l0,4.2c0,0.448 0.0053,0.848 0.016,1.2c0.016,0.3467 0.1093,0.688 0.28,1.024c0.2027,0.3893 0.4987,0.6773 0.888,0.864c0.3893,0.1813 0.832,0.28 1.328,0.296c0.5013,0.0213 1.008,-0.0187 1.52,-0.12zm1.9141,-10.168l1.424,0l0,-1.472l-1.424,0l0,1.472zm0,10.168l1.424,0l0,-8.64l-1.424,0l0,8.64zm3.8164,0l1.44,0l0,-4.552c0,-1.0027 0.216,-1.7467 0.648,-2.232c0.4373,-0.4853 1.0133,-0.728 1.728,-0.728c0.608,0 1.0827,0.152 1.424,0.456c0.3413,0.304 0.5787,0.6987 0.712,1.184c0.1387,0.4853 0.208,1 0.208,1.544l0,4.328l1.44,0l0,-4.776c0,-0.4107 -0.0507,-0.8507 -0.152,-1.32c-0.096,-0.4747 -0.272,-0.92 -0.528,-1.336c-0.2507,-0.4213 -0.6,-0.7653 -1.048,-1.032c-0.4427,-0.2667 -1.0133,-0.4 -1.712,-0.4c-1.2587,0 -2.2187,0.4453 -2.88,1.336l0,-1.112l-1.28,0l0,8.64zm13.0719,0.24c0.5333,0 1.0106,-0.0907 1.432,-0.272c0.4266,-0.1813 0.7946,-0.4347 1.104,-0.76l0,0.832c0.016,1.776 -0.792,2.664 -2.424,2.664c-0.4214,0 -0.8267,-0.096 -1.216,-0.288c-0.3894,-0.192 -0.6907,-0.4987 -0.904,-0.92l-1.304,0.688c0.3626,0.6453 0.8533,1.1227 1.472,1.432c0.6186,0.3093 1.2666,0.464 1.944,0.464c1.0346,0 1.8773,-0.2213 2.528,-0.664c0.656,-0.4373 1.0666,-1.1147 1.232,-2.032c0.0426,-0.2133 0.0693,-0.4293 0.08,-0.648c0.016,-0.2133 0.024,-0.44 0.024,-0.68l0,-8.696l-1.264,0l0,0.968c-0.3147,-0.3787 -0.6987,-0.6747 -1.152,-0.888c-0.4534,-0.2133 -0.9734,-0.32 -1.56,-0.32c-0.8,0 -1.488,0.2 -2.064,0.6c-0.576,0.3947 -1.0214,0.936 -1.336,1.624c-0.3094,0.688 -0.464,1.464 -0.464,2.328c0,0.864 0.1546,1.64 0.464,2.328c0.3093,0.688 0.752,1.2347 1.328,1.64c0.5813,0.4 1.2746,0.6 2.08,0.6zm0.176,-1.304c-0.5654,0 -1.0374,-0.144 -1.416,-0.432c-0.3734,-0.288 -0.6534,-0.6773 -0.84,-1.168c-0.1867,-0.496 -0.28,-1.0507 -0.28,-1.664c0,-0.608 0.0906,-1.1573 0.272,-1.648c0.1866,-0.4907 0.4693,-0.88 0.848,-1.168c0.384,-0.288 0.8693,-0.432 1.456,-0.432c0.8426,0 1.4666,0.304 1.872,0.912c0.4106,0.6027 0.616,1.3813 0.616,2.336c0,0.9493 -0.2027,1.7307 -0.608,2.344c-0.4054,0.6133 -1.0454,0.92 -1.92,0.92z" opacity="0.7"/>
  <path id="svg_11" fill="black" d="m47,51l2.544,0l0,-3.012l1.716,0l0,-2.376l-1.716,0l0,-4.68l-2.544,0l0,4.68l-4.932,0l5.616,-11.892l-2.868,0l-5.616,11.892l0,2.376l7.8,0l0,3.012zm6.3842,0l2.652,0l0,-2.652l-2.652,0l0,2.652zm10.8392,0.36c1.08,0 2.072,-0.26 2.976,-0.78c0.912,-0.52 1.644,-1.216 2.196,-2.088c0.552,-0.88 0.828,-1.856 0.828,-2.928c0,-1.08 -0.244,-2.048 -0.732,-2.904c-0.48,-0.856 -1.144,-1.528 -1.992,-2.016c-0.84,-0.496 -1.8,-0.744 -2.88,-0.744c-0.512,0 -1.028,0.08 -1.548,0.24c-0.512,0.16 -0.98,0.392 -1.404,0.696l0.288,-4.752l7.08,0l0,-2.364l-9.324,0l-0.528,9.084l2.184,0.768c0.272,-0.36 0.652,-0.68 1.14,-0.96c0.488,-0.288 1.084,-0.432 1.788,-0.432c0.616,0 1.18,0.152 1.692,0.456c0.52,0.296 0.932,0.7 1.236,1.212c0.312,0.512 0.468,1.084 0.468,1.716c0,0.616 -0.152,1.18 -0.456,1.692c-0.304,0.512 -0.712,0.92 -1.224,1.224c-0.512,0.304 -1.084,0.456 -1.716,0.456c-0.72,0 -1.396,-0.224 -2.028,-0.672c-0.624,-0.456 -1.036,-1.068 -1.236,-1.836l-2.412,0.648c0.24,0.84 0.632,1.584 1.176,2.232c0.544,0.64 1.196,1.144 1.956,1.512c0.76,0.36 1.584,0.54 2.472,0.54zm12.5162,-17.64l2.532,0l-4.608,17.28l-2.532,0l4.608,-17.28zm10.0672,17.64c1.08,0 2.072,-0.26 2.976,-0.78c0.912,-0.52 1.644,-1.216 2.196,-2.088c0.552,-0.88 0.828,-1.856 0.828,-2.928c0,-1.08 -0.244,-2.048 -0.732,-2.904c-0.48,-0.856 -1.144,-1.528 -1.992,-2.016c-0.84,-0.496 -1.8,-0.744 -2.88,-0.744c-0.512,0 -1.028,0.08 -1.548,0.24c-0.512,0.16 -0.98,0.392 -1.404,0.696l0.288,-4.752l7.08,0l0,-2.364l-9.324,0l-0.528,9.084l2.184,0.768c0.272,-0.36 0.652,-0.68 1.14,-0.96c0.488,-0.288 1.084,-0.432 1.788,-0.432c0.616,0 1.18,0.152 1.692,0.456c0.52,0.296 0.932,0.7 1.236,1.212c0.312,0.512 0.468,1.084 0.468,1.716c0,0.616 -0.152,1.18 -0.456,1.692c-0.304,0.512 -0.712,0.92 -1.224,1.224c-0.512,0.304 -1.084,0.456 -1.716,0.456c-0.72,0 -1.396,-0.224 -2.028,-0.672c-0.624,-0.456 -1.036,-1.068 -1.236,-1.836l-2.412,0.648c0.24,0.84 0.632,1.584 1.176,2.232c0.544,0.64 1.196,1.144 1.956,1.512c0.76,0.36 1.584,0.54 2.472,0.54z"/>
  <path d="m124.214996,41.934589c-1.495331,0.186916 -2.242989,0.934578 -2.242989,3.364483c0,2.616817 1.653801,6.139805 2.803734,7.476627c1.123795,1.306438 2.732727,2.362816 4.672897,1.68224c2.258743,-0.792328 4.097046,-3.512589 4.859802,-7.289711c0.480988,-2.381824 0.615311,-4.743862 -0.747665,-5.9813c-0.875244,-0.794632 -3.17572,-0.854214 -7.102791,0.934578c-4.580093,2.086246 -10.043846,6.619286 -12.523354,11.775688c-1.080704,2.247433 -0.326653,4.19635 2.056068,4.672894c3.11586,0.623173 6.168221,-0.186916 9.345787,-1.495327l1.121498,-1.308411l0.373825,-0.747662" id="svg_13" stroke-width="1.5" stroke="#fff" fill="none"/>
  <path d="m142.90657,31.841141c0,-0.186914 -0.395081,-0.914478 -0.747665,-1.308409c-0.798203,-0.891808 -2.879166,-2.737883 -5.607483,-3.551399c-3.092133,-0.921997 -6.941071,-0.358049 -9.345779,1.308411c-2.935112,2.034033 -6.990219,7.927088 -8.224289,11.214941c-0.47818,1.273983 -0.03447,2.61541 1.495323,2.803734c2.040672,0.251217 6.290581,-0.893101 10.280373,-3.177567c3.869263,-2.21545 7.641205,-5.038841 8.037369,-6.168217c0.123749,-0.35276 -0.005585,-0.662724 -0.934586,-0.560745c-3.425964,0.376076 -5.706161,1.873127 -8.598114,3.551395c-0.582886,0.338264 -0.531952,0.688007 0.560745,0.373833c2.335281,-0.671448 5.420563,-2.056072 7.663544,-2.803734l2.056076,-0.747665l3.177567,-1.68224l1.495316,-0.373833" id="svg_14" stroke-width="1.5" stroke="#fff" fill="none"/>
  <rect id="svg_16" height="46.355092" width="191.588588" y="26.420586" x="110.383232" stroke-width="1.5" stroke="#fff" fill="#ffffff"/>
  <rect id="svg_17" height="27.476607" width="66.541988" y="27.728996" x="32.626302" stroke-width="1.5" stroke="#fff" fill="#ffffff"/>
 </g>
</svg>