<svg width="306" height="126" viewBox="0 0 306 126" fill="none" xmlns="http://www.w3.org/2000/svg">
<rect x="12" y="12" width="281.635" height="102" rx="51" fill="url(#paint0_linear_482_1626)"/>
<rect x="6" y="6" width="293.635" height="114" rx="57" stroke="#E1E1E1" stroke-opacity="0.43" stroke-width="12"/>
<path d="M118.892 70.36C119.868 70.36 120.764 70.236 121.58 69.988C122.396 69.732 123.128 69.368 123.776 68.896L125.228 70.348L126.812 68.74L125.36 67.288C126.488 65.728 127.052 63.752 127.052 61.36C127.052 59.576 126.732 58.012 126.092 56.668C125.452 55.316 124.524 54.26 123.308 53.5C122.092 52.74 120.62 52.36 118.892 52.36C117.164 52.36 115.692 52.74 114.476 53.5C113.26 54.26 112.328 55.316 111.68 56.668C111.04 58.012 110.72 59.576 110.72 61.36C110.72 63.144 111.04 64.712 111.68 66.064C112.328 67.408 113.26 68.46 114.476 69.22C115.692 69.98 117.164 70.36 118.892 70.36ZM118.892 67.972C117.06 67.956 115.68 67.344 114.752 66.136C113.832 64.928 113.376 63.336 113.384 61.36C113.392 60.04 113.596 58.884 113.996 57.892C114.404 56.892 115.016 56.116 115.832 55.564C116.648 55.004 117.668 54.732 118.892 54.748C120.732 54.756 122.108 55.364 123.02 56.572C123.932 57.78 124.388 59.376 124.388 61.36C124.388 62.984 124.092 64.34 123.5 65.428L122.012 63.94L120.404 65.548L121.988 67.132C121.14 67.7 120.108 67.98 118.892 67.972ZM133.61 70.348C134.546 70.348 135.374 70.18 136.094 69.844C136.822 69.508 137.422 69.044 137.894 68.452V70H140.126V57.04H137.594V63.784C137.594 64.808 137.446 65.628 137.15 66.244C136.854 66.852 136.454 67.292 135.95 67.564C135.454 67.836 134.906 67.972 134.306 67.972C133.618 67.972 133.058 67.832 132.626 67.552C132.194 67.272 131.862 66.904 131.63 66.448C131.398 65.992 131.238 65.5 131.15 64.972C131.07 64.436 131.03 63.916 131.03 63.412V57.04H128.486V64.24C128.486 64.64 128.522 65.104 128.594 65.632C128.666 66.16 128.802 66.7 129.002 67.252C129.202 67.804 129.49 68.316 129.866 68.788C130.25 69.252 130.746 69.628 131.354 69.916C131.962 70.204 132.714 70.348 133.61 70.348ZM143.011 54.916H145.519V52.48H143.011V54.916ZM143.011 70H145.519V57.04H143.011V70ZM153.947 70.36C155.339 70.36 156.523 70.024 157.499 69.352C158.475 68.68 159.175 67.708 159.599 66.436L157.055 65.836C156.791 66.532 156.407 67.068 155.903 67.444C155.407 67.812 154.755 67.996 153.947 67.996C152.763 67.996 151.867 67.584 151.259 66.76C150.659 65.936 150.355 64.856 150.347 63.52C150.355 62.224 150.647 61.156 151.223 60.316C151.807 59.468 152.715 59.044 153.947 59.044C154.675 59.044 155.319 59.248 155.879 59.656C156.447 60.056 156.855 60.62 157.103 61.348L159.599 60.628C159.279 59.412 158.615 58.452 157.607 57.748C156.607 57.036 155.399 56.68 153.983 56.68C152.679 56.68 151.555 56.972 150.611 57.556C149.675 58.14 148.955 58.948 148.451 59.98C147.947 61.004 147.691 62.184 147.683 63.52C147.691 64.832 147.939 66.004 148.427 67.036C148.923 68.068 149.635 68.88 150.563 69.472C151.499 70.064 152.627 70.36 153.947 70.36ZM161.311 70H163.867V63.76L169.291 70H172.699L166.771 63.52L172.147 57.04H168.955L163.867 63.28V52.72H161.323L161.311 70ZM182.23 70.348C183.87 70.348 185.154 69.984 186.082 69.256C187.018 68.528 187.486 67.524 187.486 66.244C187.486 65.572 187.346 65.004 187.066 64.54C186.794 64.076 186.338 63.676 185.698 63.34C185.058 62.996 184.194 62.684 183.106 62.404C182.09 62.148 181.322 61.928 180.802 61.744C180.29 61.552 179.942 61.36 179.758 61.168C179.574 60.968 179.482 60.724 179.482 60.436C179.482 59.94 179.718 59.552 180.19 59.272C180.662 58.984 181.278 58.856 182.038 58.888C182.83 58.92 183.474 59.12 183.97 59.488C184.466 59.848 184.758 60.336 184.846 60.952L187.414 60.484C187.27 59.332 186.706 58.412 185.722 57.724C184.738 57.028 183.502 56.68 182.014 56.68C180.494 56.68 179.274 57.036 178.354 57.748C177.434 58.452 176.974 59.392 176.974 60.568C176.974 61.2 177.11 61.74 177.382 62.188C177.662 62.628 178.126 63.012 178.774 63.34C179.43 63.668 180.314 63.98 181.426 64.276C182.442 64.548 183.198 64.776 183.694 64.96C184.19 65.144 184.514 65.34 184.666 65.548C184.826 65.748 184.906 66.012 184.906 66.34C184.906 66.9 184.682 67.34 184.234 67.66C183.794 67.98 183.182 68.14 182.398 68.14C181.534 68.14 180.81 67.948 180.226 67.564C179.65 67.18 179.282 66.648 179.122 65.968L176.554 66.364C176.778 67.628 177.386 68.608 178.378 69.304C179.37 70 180.654 70.348 182.23 70.348ZM195.169 70.36C196.425 70.36 197.565 70.044 198.589 69.412C199.613 68.772 200.377 67.872 200.881 66.712L198.421 65.932C197.765 67.308 196.641 67.996 195.049 67.996C193.961 67.996 193.105 67.668 192.481 67.012C191.857 66.356 191.493 65.428 191.389 64.228H201.049C201.137 62.676 200.953 61.336 200.497 60.208C200.041 59.08 199.349 58.212 198.421 57.604C197.493 56.988 196.369 56.68 195.049 56.68C193.785 56.68 192.677 56.964 191.725 57.532C190.773 58.1 190.029 58.904 189.493 59.944C188.965 60.984 188.701 62.212 188.701 63.628C188.701 64.964 188.969 66.14 189.505 67.156C190.049 68.164 190.805 68.952 191.773 69.52C192.749 70.08 193.881 70.36 195.169 70.36ZM195.145 58.9C197.105 58.9 198.217 60.024 198.481 62.272H191.449C191.609 61.176 191.997 60.34 192.613 59.764C193.229 59.188 194.073 58.9 195.145 58.9ZM203.022 70H205.554V63.46C205.554 62.7 205.674 61.996 205.914 61.348C206.154 60.7 206.578 60.18 207.186 59.788C207.618 59.508 208.094 59.344 208.614 59.296C209.134 59.248 209.602 59.28 210.018 59.392V57.04C209.434 56.928 208.814 56.932 208.158 57.052C207.51 57.172 206.942 57.412 206.454 57.772C205.974 58.092 205.574 58.536 205.254 59.104V57.04H203.022V70ZM215.087 70H217.631L222.335 57.04H219.803L216.359 66.856L212.915 57.04H210.383L215.087 70ZM224.017 54.916H226.525V52.48H224.017V54.916ZM224.017 70H226.525V57.04H224.017V70ZM234.952 70.36C236.344 70.36 237.528 70.024 238.504 69.352C239.48 68.68 240.18 67.708 240.604 66.436L238.06 65.836C237.796 66.532 237.412 67.068 236.908 67.444C236.412 67.812 235.76 67.996 234.952 67.996C233.768 67.996 232.872 67.584 232.264 66.76C231.664 65.936 231.36 64.856 231.352 63.52C231.36 62.224 231.652 61.156 232.228 60.316C232.812 59.468 233.72 59.044 234.952 59.044C235.68 59.044 236.324 59.248 236.884 59.656C237.452 60.056 237.86 60.62 238.108 61.348L240.604 60.628C240.284 59.412 239.62 58.452 238.612 57.748C237.612 57.036 236.404 56.68 234.988 56.68C233.684 56.68 232.56 56.972 231.616 57.556C230.68 58.14 229.96 58.948 229.456 59.98C228.952 61.004 228.696 62.184 228.688 63.52C228.696 64.832 228.944 66.004 229.432 67.036C229.928 68.068 230.64 68.88 231.568 69.472C232.504 70.064 233.632 70.36 234.952 70.36ZM247.726 70.36C248.982 70.36 250.122 70.044 251.146 69.412C252.17 68.772 252.934 67.872 253.438 66.712L250.978 65.932C250.322 67.308 249.198 67.996 247.606 67.996C246.518 67.996 245.662 67.668 245.038 67.012C244.414 66.356 244.05 65.428 243.946 64.228H253.606C253.694 62.676 253.51 61.336 253.054 60.208C252.598 59.08 251.906 58.212 250.978 57.604C250.05 56.988 248.926 56.68 247.606 56.68C246.342 56.68 245.234 56.964 244.282 57.532C243.33 58.1 242.586 58.904 242.05 59.944C241.522 60.984 241.258 62.212 241.258 63.628C241.258 64.964 241.526 66.14 242.062 67.156C242.606 68.164 243.362 68.952 244.33 69.52C245.306 70.08 246.438 70.36 247.726 70.36ZM247.702 58.9C249.662 58.9 250.774 60.024 251.038 62.272H244.006C244.166 61.176 244.554 60.34 245.17 59.764C245.786 59.188 246.63 58.9 247.702 58.9Z" fill="#1E1B1B"/>
<ellipse cx="60.7628" cy="62" rx="34.8312" ry="35" fill="#5CBA99"/>
<path d="M70.8322 70H72.5282V65.504C72.5282 64.8213 72.6269 64.2773 72.8242 63.872C73.0269 63.4613 73.2935 63.1653 73.6242 62.984C73.9549 62.8027 74.3202 62.712 74.7202 62.712C75.1789 62.712 75.5522 62.8053 75.8402 62.992C76.1282 63.1787 76.3495 63.424 76.5042 63.728C76.6589 64.032 76.7629 64.3627 76.8162 64.72C76.8749 65.072 76.9042 65.416 76.9042 65.752V70H78.6002V65.2C78.6002 64.9333 78.5762 64.624 78.5282 64.272C78.4802 63.92 78.3895 63.56 78.2562 63.192C78.1229 62.824 77.9282 62.4853 77.6722 62.176C77.4215 61.8613 77.0935 61.608 76.6882 61.416C76.2829 61.224 75.7815 61.128 75.1842 61.128C74.5602 61.128 74.0055 61.24 73.5202 61.464C73.0402 61.688 72.6429 61.9973 72.3282 62.392V58.48H70.8322V70ZM80.684 70H82.372V65.64C82.372 65.1333 82.452 64.664 82.612 64.232C82.772 63.8 83.0546 63.4533 83.46 63.192C83.748 63.0053 84.0653 62.896 84.412 62.864C84.7586 62.832 85.0706 62.8533 85.348 62.928V61.36C84.9586 61.2853 84.5453 61.288 84.108 61.368C83.676 61.448 83.2973 61.608 82.972 61.848C82.652 62.0613 82.3853 62.3573 82.172 62.736V61.36H80.684V70Z" fill="white"/>
<path d="M40.0691 70.988H51.7571V68.6H43.9451L48.9491 64.136C49.5731 63.584 50.0931 63.072 50.5091 62.6C50.9251 62.128 51.2371 61.616 51.4451 61.064C51.6531 60.504 51.7571 59.832 51.7571 59.048C51.7571 57.952 51.5051 56.976 51.0011 56.12C50.5051 55.264 49.8251 54.592 48.9611 54.104C48.0971 53.608 47.1211 53.36 46.0331 53.36C44.8891 53.36 43.8691 53.6 42.9731 54.08C42.0851 54.552 41.3891 55.212 40.8851 56.06C40.3811 56.9 40.1291 57.88 40.1291 59H42.6971C42.6891 58.416 42.8251 57.88 43.1051 57.392C43.3931 56.896 43.7851 56.5 44.2811 56.204C44.7771 55.9 45.3451 55.748 45.9851 55.748C46.9131 55.748 47.6771 56.06 48.2771 56.684C48.8771 57.308 49.1771 58.084 49.1771 59.012C49.1771 59.5 49.0651 59.988 48.8411 60.476C48.6251 60.956 48.2131 61.468 47.6051 62.012L40.0811 68.756L40.0691 70.988ZM60.7663 71H63.3103V67.988H65.0263V65.612H63.3103V60.932H60.7663V65.612H55.8343L61.4503 53.72H58.5823L52.9663 65.612V67.988H60.7663V71Z" fill="white"/>
<defs>
<linearGradient id="paint0_linear_482_1626" x1="128.933" y1="-99" x2="234.852" y2="235.707" gradientUnits="userSpaceOnUse">
<stop stop-color="white"/>
<stop offset="1" stop-color="white"/>
</linearGradient>
</defs>
</svg>
