<svg width="282" height="102" viewBox="0 0 282 102" fill="none" xmlns="http://www.w3.org/2000/svg">
<path d="M106.892 58.36C107.868 58.36 108.764 58.236 109.58 57.988C110.396 57.732 111.128 57.368 111.776 56.896L113.228 58.348L114.812 56.74L113.36 55.288C114.488 53.728 115.052 51.752 115.052 49.36C115.052 47.576 114.732 46.012 114.092 44.668C113.452 43.316 112.524 42.26 111.308 41.5C110.092 40.74 108.62 40.36 106.892 40.36C105.164 40.36 103.692 40.74 102.476 41.5C101.26 42.26 100.328 43.316 99.68 44.668C99.04 46.012 98.72 47.576 98.72 49.36C98.72 51.144 99.04 52.712 99.68 54.064C100.328 55.408 101.26 56.46 102.476 57.22C103.692 57.98 105.164 58.36 106.892 58.36ZM106.892 55.972C105.06 55.956 103.68 55.344 102.752 54.136C101.832 52.928 101.376 51.336 101.384 49.36C101.392 48.04 101.596 46.884 101.996 45.892C102.404 44.892 103.016 44.116 103.832 43.564C104.648 43.004 105.668 42.732 106.892 42.748C108.732 42.756 110.108 43.364 111.02 44.572C111.932 45.78 112.388 47.376 112.388 49.36C112.388 50.984 112.092 52.34 111.5 53.428L110.012 51.94L108.404 53.548L109.988 55.132C109.14 55.7 108.108 55.98 106.892 55.972ZM121.61 58.348C122.546 58.348 123.374 58.18 124.094 57.844C124.822 57.508 125.422 57.044 125.894 56.452V58H128.126V45.04H125.594V51.784C125.594 52.808 125.446 53.628 125.15 54.244C124.854 54.852 124.454 55.292 123.95 55.564C123.454 55.836 122.906 55.972 122.306 55.972C121.618 55.972 121.058 55.832 120.626 55.552C120.194 55.272 119.862 54.904 119.63 54.448C119.398 53.992 119.238 53.5 119.15 52.972C119.07 52.436 119.03 51.916 119.03 51.412V45.04H116.486V52.24C116.486 52.64 116.522 53.104 116.594 53.632C116.666 54.16 116.802 54.7 117.002 55.252C117.202 55.804 117.49 56.316 117.866 56.788C118.25 57.252 118.746 57.628 119.354 57.916C119.962 58.204 120.714 58.348 121.61 58.348ZM131.011 42.916H133.519V40.48H131.011V42.916ZM131.011 58H133.519V45.04H131.011V58ZM141.947 58.36C143.339 58.36 144.523 58.024 145.499 57.352C146.475 56.68 147.175 55.708 147.599 54.436L145.055 53.836C144.791 54.532 144.407 55.068 143.903 55.444C143.407 55.812 142.755 55.996 141.947 55.996C140.763 55.996 139.867 55.584 139.259 54.76C138.659 53.936 138.355 52.856 138.347 51.52C138.355 50.224 138.647 49.156 139.223 48.316C139.807 47.468 140.715 47.044 141.947 47.044C142.675 47.044 143.319 47.248 143.879 47.656C144.447 48.056 144.855 48.62 145.103 49.348L147.599 48.628C147.279 47.412 146.615 46.452 145.607 45.748C144.607 45.036 143.399 44.68 141.983 44.68C140.679 44.68 139.555 44.972 138.611 45.556C137.675 46.14 136.955 46.948 136.451 47.98C135.947 49.004 135.691 50.184 135.683 51.52C135.691 52.832 135.939 54.004 136.427 55.036C136.923 56.068 137.635 56.88 138.563 57.472C139.499 58.064 140.627 58.36 141.947 58.36ZM149.311 58H151.867V51.76L157.291 58H160.699L154.771 51.52L160.147 45.04H156.955L151.867 51.28V40.72H149.323L149.311 58ZM170.23 58.348C171.87 58.348 173.154 57.984 174.082 57.256C175.018 56.528 175.486 55.524 175.486 54.244C175.486 53.572 175.346 53.004 175.066 52.54C174.794 52.076 174.338 51.676 173.698 51.34C173.058 50.996 172.194 50.684 171.106 50.404C170.09 50.148 169.322 49.928 168.802 49.744C168.29 49.552 167.942 49.36 167.758 49.168C167.574 48.968 167.482 48.724 167.482 48.436C167.482 47.94 167.718 47.552 168.19 47.272C168.662 46.984 169.278 46.856 170.038 46.888C170.83 46.92 171.474 47.12 171.97 47.488C172.466 47.848 172.758 48.336 172.846 48.952L175.414 48.484C175.27 47.332 174.706 46.412 173.722 45.724C172.738 45.028 171.502 44.68 170.014 44.68C168.494 44.68 167.274 45.036 166.354 45.748C165.434 46.452 164.974 47.392 164.974 48.568C164.974 49.2 165.11 49.74 165.382 50.188C165.662 50.628 166.126 51.012 166.774 51.34C167.43 51.668 168.314 51.98 169.426 52.276C170.442 52.548 171.198 52.776 171.694 52.96C172.19 53.144 172.514 53.34 172.666 53.548C172.826 53.748 172.906 54.012 172.906 54.34C172.906 54.9 172.682 55.34 172.234 55.66C171.794 55.98 171.182 56.14 170.398 56.14C169.534 56.14 168.81 55.948 168.226 55.564C167.65 55.18 167.282 54.648 167.122 53.968L164.554 54.364C164.778 55.628 165.386 56.608 166.378 57.304C167.37 58 168.654 58.348 170.23 58.348ZM183.169 58.36C184.425 58.36 185.565 58.044 186.589 57.412C187.613 56.772 188.377 55.872 188.881 54.712L186.421 53.932C185.765 55.308 184.641 55.996 183.049 55.996C181.961 55.996 181.105 55.668 180.481 55.012C179.857 54.356 179.493 53.428 179.389 52.228H189.049C189.137 50.676 188.953 49.336 188.497 48.208C188.041 47.08 187.349 46.212 186.421 45.604C185.493 44.988 184.369 44.68 183.049 44.68C181.785 44.68 180.677 44.964 179.725 45.532C178.773 46.1 178.029 46.904 177.493 47.944C176.965 48.984 176.701 50.212 176.701 51.628C176.701 52.964 176.969 54.14 177.505 55.156C178.049 56.164 178.805 56.952 179.773 57.52C180.749 58.08 181.881 58.36 183.169 58.36ZM183.145 46.9C185.105 46.9 186.217 48.024 186.481 50.272H179.449C179.609 49.176 179.997 48.34 180.613 47.764C181.229 47.188 182.073 46.9 183.145 46.9ZM191.022 58H193.554V51.46C193.554 50.7 193.674 49.996 193.914 49.348C194.154 48.7 194.578 48.18 195.186 47.788C195.618 47.508 196.094 47.344 196.614 47.296C197.134 47.248 197.602 47.28 198.018 47.392V45.04C197.434 44.928 196.814 44.932 196.158 45.052C195.51 45.172 194.942 45.412 194.454 45.772C193.974 46.092 193.574 46.536 193.254 47.104V45.04H191.022V58ZM203.087 58H205.631L210.335 45.04H207.803L204.359 54.856L200.915 45.04H198.383L203.087 58ZM212.017 42.916H214.525V40.48H212.017V42.916ZM212.017 58H214.525V45.04H212.017V58ZM222.952 58.36C224.344 58.36 225.528 58.024 226.504 57.352C227.48 56.68 228.18 55.708 228.604 54.436L226.06 53.836C225.796 54.532 225.412 55.068 224.908 55.444C224.412 55.812 223.76 55.996 222.952 55.996C221.768 55.996 220.872 55.584 220.264 54.76C219.664 53.936 219.36 52.856 219.352 51.52C219.36 50.224 219.652 49.156 220.228 48.316C220.812 47.468 221.72 47.044 222.952 47.044C223.68 47.044 224.324 47.248 224.884 47.656C225.452 48.056 225.86 48.62 226.108 49.348L228.604 48.628C228.284 47.412 227.62 46.452 226.612 45.748C225.612 45.036 224.404 44.68 222.988 44.68C221.684 44.68 220.56 44.972 219.616 45.556C218.68 46.14 217.96 46.948 217.456 47.98C216.952 49.004 216.696 50.184 216.688 51.52C216.696 52.832 216.944 54.004 217.432 55.036C217.928 56.068 218.64 56.88 219.568 57.472C220.504 58.064 221.632 58.36 222.952 58.36ZM235.726 58.36C236.982 58.36 238.122 58.044 239.146 57.412C240.17 56.772 240.934 55.872 241.438 54.712L238.978 53.932C238.322 55.308 237.198 55.996 235.606 55.996C234.518 55.996 233.662 55.668 233.038 55.012C232.414 54.356 232.05 53.428 231.946 52.228H241.606C241.694 50.676 241.51 49.336 241.054 48.208C240.598 47.08 239.906 46.212 238.978 45.604C238.05 44.988 236.926 44.68 235.606 44.68C234.342 44.68 233.234 44.964 232.282 45.532C231.33 46.1 230.586 46.904 230.05 47.944C229.522 48.984 229.258 50.212 229.258 51.628C229.258 52.964 229.526 54.14 230.062 55.156C230.606 56.164 231.362 56.952 232.33 57.52C233.306 58.08 234.438 58.36 235.726 58.36ZM235.702 46.9C237.662 46.9 238.774 48.024 239.038 50.272H232.006C232.166 49.176 232.554 48.34 233.17 47.764C233.786 47.188 234.63 46.9 235.702 46.9Z" fill="#1E1B1B"/>
<ellipse cx="48.7628" cy="50" rx="34.8312" ry="35" fill="#5CBA99"/>
<path d="M58.8322 58H60.5282V53.504C60.5282 52.8213 60.6269 52.2773 60.8242 51.872C61.0269 51.4613 61.2935 51.1653 61.6242 50.984C61.9549 50.8027 62.3202 50.712 62.7202 50.712C63.1789 50.712 63.5522 50.8053 63.8402 50.992C64.1282 51.1787 64.3495 51.424 64.5042 51.728C64.6589 52.032 64.7629 52.3627 64.8162 52.72C64.8749 53.072 64.9042 53.416 64.9042 53.752V58H66.6002V53.2C66.6002 52.9333 66.5762 52.624 66.5282 52.272C66.4802 51.92 66.3895 51.56 66.2562 51.192C66.1229 50.824 65.9282 50.4853 65.6722 50.176C65.4215 49.8613 65.0935 49.608 64.6882 49.416C64.2829 49.224 63.7815 49.128 63.1842 49.128C62.5602 49.128 62.0055 49.24 61.5202 49.464C61.0402 49.688 60.6429 49.9973 60.3282 50.392V46.48H58.8322V58ZM68.684 58H70.372V53.64C70.372 53.1333 70.452 52.664 70.612 52.232C70.772 51.8 71.0546 51.4533 71.46 51.192C71.748 51.0053 72.0653 50.896 72.412 50.864C72.7586 50.832 73.0706 50.8533 73.348 50.928V49.36C72.9586 49.2853 72.5453 49.288 72.108 49.368C71.676 49.448 71.2973 49.608 70.972 49.848C70.652 50.0613 70.3853 50.3573 70.172 50.736V49.36H68.684V58Z" fill="white"/>
<path d="M28.0691 58.988H39.7571V56.6H31.9451L36.9491 52.136C37.5731 51.584 38.0931 51.072 38.5091 50.6C38.9251 50.128 39.2371 49.616 39.4451 49.064C39.6531 48.504 39.7571 47.832 39.7571 47.048C39.7571 45.952 39.5051 44.976 39.0011 44.12C38.5051 43.264 37.8251 42.592 36.9611 42.104C36.0971 41.608 35.1211 41.36 34.0331 41.36C32.8891 41.36 31.8691 41.6 30.9731 42.08C30.0851 42.552 29.3891 43.212 28.8851 44.06C28.3811 44.9 28.1291 45.88 28.1291 47H30.6971C30.6891 46.416 30.8251 45.88 31.1051 45.392C31.3931 44.896 31.7851 44.5 32.2811 44.204C32.7771 43.9 33.3451 43.748 33.9851 43.748C34.9131 43.748 35.6771 44.06 36.2771 44.684C36.8771 45.308 37.1771 46.084 37.1771 47.012C37.1771 47.5 37.0651 47.988 36.8411 48.476C36.6251 48.956 36.2131 49.468 35.6051 50.012L28.0811 56.756L28.0691 58.988ZM48.7663 59H51.3103V55.988H53.0263V53.612H51.3103V48.932H48.7663V53.612H43.8343L49.4503 41.72H46.5823L40.9663 53.612V55.988H48.7663V59Z" fill="white"/>
</svg>
